<?xml version="1.0" encoding="utf-8"?>
<!-- Generator: Adobe Illustrator 23.0.2, SVG Export Plug-In . SVG Version: 6.00 Build 0)  -->
<svg version="1.1" id="Layer_1" xmlns="http://www.w3.org/2000/svg" xmlns:xlink="http://www.w3.org/1999/xlink" x="0px" y="0px"
	 viewBox="0 0 100 89.2" style="enable-background:new 0 0 100 89.2;" xml:space="preserve">
<path d="M83.5,4c-0.4-0.2-0.9-0.1-1.3,0.3L3.5,83c-0.3,0.3-0.4,0.8-0.3,1.3C3.5,84.7,3.9,85,4.4,85h78.7c0.7,0,1.2-0.5,1.2-1.2V5.1
	C84.3,4.6,84,4.2,83.5,4z M72.4,82.6v-4.3c0-0.7-0.5-1.2-1.2-1.2c-0.7,0-1.2,0.5-1.2,1.2v4.3h-3.5v-2.8c0-0.7-0.5-1.2-1.2-1.2
	c-0.7,0-1.2,0.5-1.2,1.2v2.8h-3.5v-2.8c0-0.7-0.5-1.2-1.2-1.2s-1.2,0.5-1.2,1.2v2.8h-3.5v-2.8c0-0.7-0.5-1.2-1.2-1.2
	c-0.7,0-1.2,0.5-1.2,1.2v2.8h-3.5v-4.3c0-0.7-0.5-1.2-1.2-1.2c-0.7,0-1.2,0.5-1.2,1.2v4.3h-3.5v-2.8c0-0.7-0.5-1.2-1.2-1.2
	c-0.7,0-1.2,0.5-1.2,1.2v2.8H37v-2.8c0-0.7-0.5-1.2-1.2-1.2c-0.7,0-1.2,0.5-1.2,1.2v2.8h-3.5v-2.8c0-0.7-0.5-1.2-1.2-1.2
	c-0.7,0-1.2,0.5-1.2,1.2v2.8h-3.5v-4.3c0-0.7-0.5-1.2-1.2-1.2c-0.7,0-1.2,0.5-1.2,1.2v4.3H7.2L81.9,8v15.6h-4.3
	c-0.7,0-1.2,0.5-1.2,1.2c0,0.7,0.5,1.2,1.2,1.2h4.3v3.5h-2.8c-0.7,0-1.2,0.5-1.2,1.2c0,0.7,0.5,1.2,1.2,1.2h2.8v3.5h-2.8
	c-0.7,0-1.2,0.5-1.2,1.2c0,0.7,0.5,1.2,1.2,1.2h2.8v3.5h-2.8c-0.7,0-1.2,0.5-1.2,1.2s0.5,1.2,1.2,1.2h2.8v3.5h-4.3
	c-0.7,0-1.2,0.5-1.2,1.2c0,0.7,0.5,1.2,1.2,1.2h4.3v3.5h-2.8c-0.7,0-1.2,0.5-1.2,1.2c0,0.7,0.5,1.2,1.2,1.2h2.8V59h-2.8
	c-0.7,0-1.2,0.5-1.2,1.2c0,0.7,0.5,1.2,1.2,1.2h2.8v3.5h-2.8c-0.7,0-1.2,0.5-1.2,1.2c0,0.7,0.5,1.2,1.2,1.2h2.8v3.5h-4.3
	c-0.7,0-1.2,0.5-1.2,1.2c0,0.7,0.5,1.2,1.2,1.2h4.3v9.4L72.4,82.6L72.4,82.6z"/>
<path d="M65.4,48.1c-0.4-0.2-0.9-0.1-1.3,0.3L47.6,64.9c-0.3,0.3-0.4,0.8-0.3,1.3c0.2,0.4,0.6,0.7,1.1,0.7H65c0.7,0,1.2-0.5,1.2-1.2
	V49.2C66.2,48.7,65.9,48.3,65.4,48.1z M63.8,64.5H51.3L63.8,52V64.5z"/>
</svg>
