<?xml version="1.0" encoding="utf-8"?>
<!-- Generator: Adobe Illustrator 23.0.2, SVG Export Plug-In . SVG Version: 6.00 Build 0)  -->
<svg version="1.1" id="Layer_1" xmlns="http://www.w3.org/2000/svg" xmlns:xlink="http://www.w3.org/1999/xlink" x="0px" y="0px"
	 viewBox="0 0 100 89.2" style="enable-background:new 0 0 100 89.2;" xml:space="preserve">
<style type="text/css">
	.st0{fill:#1D1D1B;stroke:#1D1D1B;stroke-miterlimit:10;}
</style>
<g>
	<g>
		<path class="st0" d="M49,83.7L33.3,41c2.8-1.2,5.4-3,7.4-5.3c0.4-0.4,0.3-1-0.1-1.3c-0.4-0.4-1-0.3-1.3,0.1
			c-1.8,2.1-4.1,3.6-6.6,4.7l-3.2-8.5c3.4-1.6,5.8-5,5.8-9c0-5.2-4-9.5-9.1-10v-5c0-0.6-0.4-1-1-1s-1,0.4-1,1v5.1
			c-5.1,0.5-9.1,4.7-9.1,10c0,4,2.4,7.4,5.8,9l-3.2,8.5c-2.5-1.1-4.8-2.7-6.6-4.7c-0.4-0.4-1-0.4-1.3-0.1c-0.4,0.4-0.4,1-0.1,1.3
			c2.1,2.3,4.6,4.1,7.4,5.3L1.4,83.7c-0.2,0.5,0.1,1.1,0.6,1.2c0.1,0,0.2,0.1,0.3,0.1c0.4,0,0.8-0.3,0.9-0.7l15.6-42.6
			c2,0.7,4.1,1,6.3,1c2.1,0,4.3-0.4,6.3-1L47,84.3c0.2,0.5,0.8,0.8,1.2,0.6C48.8,84.7,49.2,84.1,49,83.7z M17,21.8
			c0-4.1,3.2-7.6,7.2-8.1v4.5c0,0.6,0.4,1,1,1s1-0.4,1-1v-4.4c4,0.5,7.2,3.9,7.2,8.1c0,3.2-1.8,5.9-4.4,7.3l-2.8-7.7
			c-0.1-0.4-0.5-0.7-0.9-0.7s-0.8,0.3-0.9,0.7L21.6,29C18.9,27.7,17,25,17,21.8z M27.1,29.7c-0.6,0.2-1.2,0.2-1.9,0.2
			s-1.2-0.1-1.9-0.2l1.9-5.2L27.1,29.7z M25.2,40.7c-1.9,0-3.8-0.3-5.7-0.9l3.2-8.5c0.8,0.2,1.6,0.3,2.5,0.3l0,0
			c0.9,0,1.7-0.1,2.5-0.3l3.2,8.5C29,40.5,27.1,40.7,25.2,40.7z"/>
	</g>
</g>
</svg>
