<?xml version="1.0" encoding="utf-8"?>
<!-- Generator: Adobe Illustrator 23.0.2, SVG Export Plug-In . SVG Version: 6.00 Build 0)  -->
<svg version="1.1" id="Layer_1" xmlns="http://www.w3.org/2000/svg" xmlns:xlink="http://www.w3.org/1999/xlink" x="0px" y="0px"
	 viewBox="0 0 100 89.2" style="enable-background:new 0 0 100 89.2;" xml:space="preserve">
<style type="text/css">
	.st0{fill:#1C1C1C;}
</style>
<rect x="35.7" y="3.9" class="st0" width="2.4" height="35.2"/>
<rect x="33.9" y="20.3" transform="matrix(1.478839e-03 -1 1 1.478839e-03 29.8854 72.8753)" class="st0" width="35.2" height="2.4"/>
<path d="M5.6,46.2v-2.5V6.5h37.2h2.5h37.2v37.2v2.5v37.2H45.3h-2.5H5.6V46.2z M3,85.9h81.9v-82H3V85.9z"/>
<polygon class="st0" points="38.1,36.7 4.2,36.6 4.2,39 38.1,39.1 "/>
<polygon class="st0" points="50.2,36.7 50.2,39.1 84.1,39 84.1,36.6 "/>
<polygon class="st0" points="35.6,85.7 38,85.7 38.1,50.6 35.7,50.6 "/>
<polygon class="st0" points="50.2,50.6 50.3,85.7 52.7,85.7 52.6,50.6 "/>
<polygon class="st0" points="38.1,53 4.2,53 4.2,50.6 38.1,50.6 "/>
<polygon class="st0" points="50.2,53 84.1,53 84.1,50.6 50.2,50.6 "/>
</svg>
