<?xml version="1.0" encoding="utf-8"?>
<!-- Generator: Adobe Illustrator 23.0.2, SVG Export Plug-In . SVG Version: 6.00 Build 0)  -->
<svg version="1.1" id="Layer_1" xmlns="http://www.w3.org/2000/svg" xmlns:xlink="http://www.w3.org/1999/xlink" x="0px" y="0px"
	 viewBox="0 0 100 89.2" style="enable-background:new 0 0 100 89.2;" xml:space="preserve">
<style type="text/css">
	.st0{fill:#1C1C1C;}
</style>
<rect x="2.9" y="83.5" class="st0" width="78" height="2.4"/>
<rect x="2.9" y="43.7" class="st0" width="78" height="2.4"/>
<rect x="12.4" y="3.9" class="st0" width="58.9" height="2.4"/>
<rect x="12.4" y="77.1" class="st0" width="58.9" height="2.4"/>
<rect x="40.7" y="44.9" transform="matrix(1 -1.291333e-03 1.291333e-03 1 -8.394577e-02 5.416093e-02)" class="st0" width="2.4" height="40.3"/>
<rect x="21.8" y="44.9" transform="matrix(1 -1.266512e-03 1.266512e-03 1 -8.234807e-02 2.919828e-02)" class="st0" width="2.4" height="40.3"/>
<rect x="12.5" y="44.9" transform="matrix(1 -1.266536e-03 1.266536e-03 1 -8.235711e-02 1.735887e-02)" class="st0" width="2.4" height="40.3"/>
<rect x="31.2" y="44.9" transform="matrix(1 -1.266512e-03 1.266512e-03 1 -8.234058e-02 4.103801e-02)" class="st0" width="2.4" height="40.3"/>
<rect x="50.1" y="44.9" transform="matrix(1 -1.291333e-03 1.291333e-03 1 -8.393791e-02 6.635558e-02)" class="st0" width="2.4" height="40.3"/>
<rect x="68.9" y="44.9" transform="matrix(1 -1.266418e-03 1.266418e-03 1 -8.230413e-02 8.887246e-02)" class="st0" width="2.4" height="40.3"/>
<rect x="2.9" y="44.9" transform="matrix(1 -1.291379e-03 1.291379e-03 1 -8.398028e-02 5.382457e-03)" class="st0" width="2.4" height="40.3"/>
<rect x="59.6" y="44.9" transform="matrix(1 -1.266512e-03 1.266512e-03 1 -8.231778e-02 7.703938e-02)" class="st0" width="2.4" height="40.3"/>
<rect x="78.5" y="44.9" transform="matrix(1 -1.291238e-03 1.291238e-03 1 -8.390813e-02 0.1029)" class="st0" width="2.4" height="40.3"/>
<rect x="12.5" y="6.3" transform="matrix(1 -1.306565e-03 1.306565e-03 1 -3.422034e-02 1.787632e-02)" class="st0" width="2.4" height="39.8"/>
<rect x="68.9" y="6.3" transform="matrix(1 -1.306613e-03 1.306613e-03 1 -3.417339e-02 9.166209e-02)" class="st0" width="2.4" height="39.8"/>
</svg>
