<?xml version="1.0" encoding="utf-8"?>
<!-- Generator: Adobe Illustrator 23.0.2, SVG Export Plug-In . SVG Version: 6.00 Build 0)  -->
<svg version="1.1" id="Layer_1" xmlns="http://www.w3.org/2000/svg" xmlns:xlink="http://www.w3.org/1999/xlink" x="0px" y="0px"
	 viewBox="0 0 100 89.2" style="enable-background:new 0 0 100 89.2;" xml:space="preserve">
<style type="text/css">
	.st0{fill:#1D1D1B;stroke:#1D1D1B;stroke-miterlimit:10;}
</style>
<g transform="translate(0,-952.36218)">
	<path class="st0" d="M39.2,957c-0.5,0-0.9,0.4-0.9,0.9v7.1c0,0.5,0.4,0.9,0.9,0.9s0.9-0.4,0.9-0.9v-7.1
		C40.1,957.4,39.7,957,39.2,957z M14.1,967.4c-0.2,0-0.5,0.1-0.6,0.2c-0.3,0.3-0.3,0.9,0,1.3l5,5c0.3,0.3,0.9,0.3,1.3,0
		c0.3-0.3,0.3-0.9,0-1.3l-5-5C14.5,967.5,14.3,967.4,14.1,967.4z M64.3,967.4c-0.2,0-0.5,0.1-0.6,0.2l-5,5c-0.3,0.3-0.3,0.9,0,1.3
		c0.3,0.3,0.9,0.3,1.3,0l5-5c0.3-0.3,0.3-0.9,0-1.3C64.8,967.5,64.6,967.4,64.3,967.4z M39.2,971.2c-11.3,0-22.2,8.8-22.2,21.2
		c0,7.9,3,12.9,5.9,17s5.6,7.4,5.6,12.5v10.7c0,2.5,2.1,4.4,4.4,4.4h12.4c2.4,0,4.4-1.9,4.4-4.4v-10.7c0-5.1,2.7-8.4,5.6-12.5
		c2.9-4.1,5.9-9,5.9-17C61.4,980,50.5,971.2,39.2,971.2z M39.2,973c10.4,0,20.4,8,20.4,19.4c0,7.5-2.7,11.9-5.6,15.9
		c-2.7,3.8-5.6,7.4-5.9,12.6H30.3c-0.3-5.2-3.2-8.8-5.9-12.6c-2.9-4.1-5.6-8.4-5.6-15.9C18.8,981,28.8,973,39.2,973z M34,978.4
		c-0.1,0-0.3,0-0.4,0.1c-5.2,2-9.1,6.5-10.1,12.1c-0.1,0.5,0.3,0.9,0.7,1c0.5,0.1,1-0.3,1.1-0.7c0.9-5,4.3-9,8.9-10.8
		c0.4-0.1,0.8-0.6,0.7-1C34.7,978.5,34.3,978.3,34,978.4z M3.6,992.5c-0.5,0-0.9,0.4-0.9,0.9s0.4,0.9,0.9,0.9h7.1
		c0.5,0,0.9-0.4,0.9-0.9s-0.4-0.9-0.9-0.9H3.6z M67.6,992.5c-0.5,0-0.9,0.4-0.9,0.9s0.4,0.9,0.9,0.9h7.1c0.5,0,0.9-0.4,0.9-0.9
		s-0.4-0.9-0.9-0.9H67.6z M30.3,1022.7h17.8v5.3H30.3V1022.7z M30.3,1029.9h17.8v2.7c0,1.6-1.3,2.7-2.7,2.7H33
		c-1.4,0-2.7-1.1-2.7-2.7V1029.9z"/>
</g>
</svg>
